<svg width="54" height="54" viewBox="0 0 54 54" fill="none" xmlns="http://www.w3.org/2000/svg">
<path d="M14.715 11.25C14.85 13.2525 15.1875 15.21 15.7275 17.0775L13.0275 19.7775C12.105 17.0775 11.52 14.22 11.3175 11.25H14.715ZM36.9 38.295C38.8125 38.835 40.77 39.1725 42.75 39.3075V42.66C39.78 42.4575 36.9225 41.8725 34.2 40.9725L36.9 38.295ZM16.875 6.75H9C7.7625 6.75 6.75 7.7625 6.75 9C6.75 30.1275 23.8725 47.25 45 47.25C46.2375 47.25 47.25 46.2375 47.25 45V37.1475C47.25 35.91 46.2375 34.8975 45 34.8975C42.21 34.8975 39.4875 34.4475 36.9675 33.615C36.7425 33.525 36.495 33.5025 36.27 33.5025C35.685 33.5025 35.1225 33.7275 34.6725 34.155L29.7225 39.105C23.355 35.8425 18.135 30.645 14.895 24.2775L19.845 19.3275C20.475 18.6975 20.655 17.82 20.4075 17.0325C19.575 14.5125 19.125 11.8125 19.125 9C19.125 7.7625 18.1125 6.75 16.875 6.75Z" fill="black"/>
</svg>
